<?xml version="1.0" encoding="utf-8"?>
<!-- Generator: Adobe Illustrator 21.0.0, SVG Export Plug-In . SVG Version: 6.00 Build 0)  -->
<svg version="1.1" id="图层_1" xmlns="http://www.w3.org/2000/svg" xmlns:xlink="http://www.w3.org/1999/xlink" x="0px" y="0px"
	 viewBox="0 0 35 25" style="enable-background:new 0 0 35 25;" xml:space="preserve">
<style type="text/css">
	.st0{fill:#FF4342;}
</style>
<path class="st0" d="M14.3,1.3C20.3,6.2,23,9,35,9v16c-15.5,0-18.7,0.4-29.5-6C-8,11,6.7-4.7,14.3,1.3z"/>
<g>
	<path d="M33.1,9c-1.3,0-2.5-0.1-3.6-0.2c-0.2,7.5-2.3,13.4-3.4,16.2c1.6,0,3.4,0,5.5,0C32.6,20.8,33.3,12.7,33.1,9z"/>
	<path d="M21.1,6.3c-0.9-0.5-1.7-1-2.6-1.6c-3.1,5.2-10.3,14.3-13,14.3c0,0,0,0-0.1,0l0.1,0c2.1,1.3,4,2.3,5.7,3.1
		c3.4-3.9,8.6-11.4,9.8-15.6L21.1,6.3z"/>
	<path d="M23.9,7.6c-0.9,4.6-6.4,13.4-8.8,16c2.1,0.7,4.2,1,6.6,1.2c2.8-4,4.8-12.3,5.3-16.4C25.8,8.2,24.8,7.9,23.9,7.6z"/>
</g>
</svg>
